<svg xmlns="http://www.w3.org/2000/svg" width="60" height="46.019" viewBox="0 0 60 46.019"><path d="M1108,5148.208h-52a4,4,0,0,1-4-4v-35.015a1,1,0,0,1,2,0v35.015a2,2,0,0,0,2,2h52a2,2,0,0,0,2-2v-38.016a2,2,0,0,0-2-2h-55a1,1,0,0,1,0-2h55a4,4,0,0,1,4,4v38.016A4,4,0,0,1,1108,5148.208Z" transform="translate(-1052 -5102.19)" fill="#6f6f6f"/><path d="M1082,5133.189a1,1,0,0,1-.722-.294.98.98,0,0,1-.13-.16l-22.839-22.848a1,1,0,0,1,1.416-1.418L1082,5130.755l22.276-22.286a1,1,0,0,1,1.416,1.418l-22.839,22.848a.98.98,0,0,1-.13.16,1,1,0,0,1-.708.294Z" transform="translate(-1052 -5102.19)" fill="#e8be7b"/></svg>