<svg xmlns="http://www.w3.org/2000/svg" width="48" height="40.962" viewBox="0 0 48 40.962">
  <path id="heart" d="M575.974,1174.169c5.969,0,10.807,4.43,10.807,9.9a9.486,9.486,0,0,1-3.328,7.139L566,1207.86l-17.767-16.944a9.443,9.443,0,0,1-3.014-6.85c0-5.467,4.839-9.9,10.807-9.9A11.065,11.065,0,0,1,566,1180.5a10.738,10.738,0,0,1,9.95-6.356m.647-3.136a13.4,13.4,0,0,0-10.6,4.7,13.4,13.4,0,0,0-10.6-4.7c-7.391,0-13.4,5.721-13.4,12.753a12.384,12.384,0,0,0,3.737,8.831l18.9,18.078,1.361,1.3,1.361-1.3L585.9,1192.94a12.342,12.342,0,0,0,4.095-9.174c0-7.032-6.011-12.753-13.4-12.753Z" transform="translate(-542 -1171.013)" fill="#6f6f6f"/>
</svg>
