<svg xmlns="http://www.w3.org/2000/svg" width="60.024" height="60.024" viewBox="0 0 60.024 60.024"><path d="M288.5,5149.088a.955.955,0,0,1-.366-1.326l6-10.082a1.009,1.009,0,0,1,.963-.48H306a1,1,0,1,1,0,2H295.539l-5.673,9.532a1,1,0,0,1-.867.485A1.015,1.015,0,0,1,288.5,5149.088Zm-.5-43.9a4,4,0,1,1,4,4A4,4,0,0,1,288,5105.189Zm2,0a2,2,0,1,0,2-2A2,2,0,0,0,290,5105.189Z" transform="translate(-261.988 -5095.188)" fill="#e8be7b"/><path d="M276.444,5148.765a21.892,21.892,0,0,1-5.617-9.55l-7.58,1.962a1,1,0,1,1-.518-1.932l7.643-1.978A22.264,22.264,0,0,1,270,5133.2a22.021,22.021,0,0,1,11.473-19.329l.921,1.78a20.027,20.027,0,0,0-10.078,21.11l38.62-10a20.028,20.028,0,0,0-9.331-11.114l.921-1.78a22.032,22.032,0,0,1,10.352,12.392l7.874-2.038a1,1,0,0,1,.517,1.932l-7.848,2.031a22,22,0,0,1-36.979,20.574ZM292,5153.211a20.009,20.009,0,0,0,19.485-24.518l-38.714,10.02A20.037,20.037,0,0,0,292,5153.211Zm0-26.013-8.637-16.982a10,10,0,1,1,17.276,0L292,5127.2v0Zm0-4,7.125-14.349h-.016a7.921,7.921,0,0,0,.89-3.658,8,8,0,1,0-16,0,7.906,7.906,0,0,0,.89,3.658h-.014Z" transform="translate(-261.988 -5095.188)" fill="#6f6f6f"/></svg>