<svg xmlns="http://www.w3.org/2000/svg" width="38.001" height="60.02" viewBox="0 0 38.001 60.02"><path d="M700,5155.21a4,4,0,0,1-4-4v-52.02a4,4,0,0,1,4-4h30a4,4,0,0,1,4,4v52.02a4,4,0,0,1-4,4Zm-2-4a2,2,0,0,0,2,2h30a2,2,0,0,0,2-2v-44.02H703a1,1,0,1,1,0-2h29v-6a2,2,0,0,0-2-2H700a2,2,0,0,0-2,2v44.019h29a1,1,0,1,1,0,2H698Z" transform="translate(-696 -5095.19)" fill="#6f6f6f"/><path d="M713,5149.21a2,2,0,1,1,2,2A2,2,0,0,1,713,5149.21Zm-10.715-26.3a.957.957,0,0,1,0-1.357l10.072-10.077a.96.96,0,0,1,1.357,1.357l-10.072,10.077a.96.96,0,0,1-1.357,0Zm0-6a.957.957,0,0,1,0-1.357l4.072-4.075a.96.96,0,0,1,1.357,1.357l-4.072,4.075a.96.96,0,0,1-1.357,0ZM712,5102.19a1,1,0,1,1,0-2h6a1,1,0,0,1,0,2Z" transform="translate(-696 -5095.19)" fill="#e8be7b"/></svg>