<svg xmlns="http://www.w3.org/2000/svg" width="34" height="39.996" viewBox="0 0 34 39.996">
  <path id="wedding_cake" data-name="wedding cake" d="M783,1212V1193.33h5.231v-10.666h10.479l-4.224-4.344a3.778,3.778,0,0,1-.426-4.607h0a3.621,3.621,0,0,1,3.056-1.709,3.712,3.712,0,0,0,5.768,0,3.621,3.621,0,0,1,3.056,1.709h0a3.778,3.778,0,0,1-.524,4.707l-4.126,4.244h10.479v10.666H817V1212Zm14.544-37.313c-.1,0-.2.009-.291.016h.447A1.282,1.282,0,0,0,797.544,1174.685Zm4.831,0,0,0a1.575,1.575,0,0,0-.177.02h.492C802.584,1174.693,802.484,1174.685,802.375,1174.685Zm1.541,1.7c0-.648-.216-1.594-1.215-1.678h-.515a4.536,4.536,0,0,0-2.186,1.334,5.77,5.77,0,0,0-2.292-1.334h-.47c-1.011.085-1.194,1.265-1.153,1.711.062.679.468.858.843,1.255L800,1180.75l2.94-2.913C803.352,1177.433,803.916,1177.007,803.916,1176.381Zm5.238,8.95H790.846v8h18.308ZM814.385,1196H785.615v6.608a3.8,3.8,0,0,0,.676.059,3.3,3.3,0,0,0,3.259-3.334,3.261,3.261,0,0,1,0-.667h2.607a3.157,3.157,0,0,0,0,.667,3.26,3.26,0,1,0,6.518,0,3.256,3.256,0,0,1,0-.667h2.607a3.177,3.177,0,0,0,0,.667,3.26,3.26,0,1,0,6.518,0,3.241,3.241,0,0,1,0-.667h2.607a3.171,3.171,0,0,0,0,.667,3.3,3.3,0,0,0,3.259,3.334,1.683,1.683,0,0,0,.717-.162Zm0,9.238a2.633,2.633,0,0,1-.717.095,5.808,5.808,0,0,1-4.563-2.233,5.778,5.778,0,0,1-9.125,0,5.778,5.778,0,0,1-9.125,0,5.808,5.808,0,0,1-4.563,2.233,4.692,4.692,0,0,1-.676-.063v4.063h28.769Zm-3.975-6.572h0Z" transform="translate(-783 -1172.001)" fill="#6f6f6f"/>
</svg>
